<svg width="285" height="175" viewBox="0 0 285 175" fill="none" xmlns="http://www.w3.org/2000/svg">
<path d="M15.8085 35.6281C15.8085 51.8641 23.2987 61.7975 34.7124 61.7975C46.126 61.7975 53.2723 51.8641 53.2723 35.6281C53.2723 18.2305 46.1897 9.32545 34.7124 9.32545C23.235 9.32545 15.8085 18.2305 15.8085 35.6281ZM69.0808 35.6281C69.0808 56.5864 53.8901 71.2484 34.5722 71.2484C15.2543 71.2484 0 56.5864 0 35.6281C0 14.6698 15.4645 0.0078125 34.5722 0.0078125C53.68 0.0078125 69.0808 14.6698 69.0808 35.6281Z" fill="#55A05E"/>
<path d="M77.7288 69.9345V1.37879H90.703V22.6164C94.5819 7.82117 102.913 0.0078125 116.537 0.0078125C128.823 0.0078125 138.428 7.61171 138.428 22.8893V69.9345H124.186V28.094C124.186 18.9858 119.358 11.7882 109.83 11.7882C97.1932 11.7882 91.9641 22.8195 91.9641 30.6265V69.9282H77.7225L77.7288 69.9345Z" fill="#55A05E"/>
<path d="M181.717 61.174C169.691 61.174 163.36 51.8627 163.36 36.4454V35.2077H213.818C213.404 13.5639 202.34 0 181.169 0C161.443 0 147.488 14.3827 147.488 36.1662C147.488 55.963 159.176 71.2406 181.583 71.2406C202.824 71.2406 212.786 57.5117 213.41 45.249H198.837C197.805 55.1124 193.748 61.1676 181.723 61.1676L181.717 61.174ZM181.303 10.073C192.646 10.073 197.672 18.6734 198.111 27.7308H164.029C165.8 16.1218 171.761 10.073 181.309 10.073H181.303Z" fill="#55A05E"/>
<path d="M193.236 122.406C193.236 117.354 198.045 114.06 205.178 114.06C213.573 114.06 218.191 117.754 218.751 123.644H232.802C232.521 111.464 222.229 103.117 205.178 103.117C190.211 103.117 179.771 110.372 179.771 123.104C179.771 148.715 220.566 137.493 220.566 154.174C220.566 159.797 215.216 163.358 207.102 163.358C197.981 163.358 192.599 159.429 191.605 153.399H177.479C178.313 165.999 189.841 174.313 207.102 174.313C222.49 174.313 234.031 167.046 234.031 153.488C234.031 127.884 193.236 138.985 193.236 122.406Z" fill="#55A05E"/>
<path d="M167.452 104.445V172.995H153.904V151.706C150.745 166.502 142.637 174.315 129.37 174.315C117.409 174.315 108.059 166.711 108.059 151.433V104.445H122.217V146.229C122.217 155.337 126.619 162.535 135.899 162.535C148.204 162.535 153.287 151.503 153.287 143.696V104.445H167.445H167.452Z" fill="#55A05E"/>
<path d="M98.8701 104.45V118.522C94.0804 118.249 92.227 118.109 90.5774 118.109C80.514 118.109 74.0619 122.425 71.9664 134.853C71.5652 137.208 71.3996 139.594 71.3996 141.987V172.993H57.2344V104.438H70.164V125.961C70.2531 125.656 72.8199 117.316 74.9664 113.635C77.7051 108.113 82.8706 104.457 89.0424 104.457H98.8574L98.8701 104.45Z" fill="#55A05E"/>
<path d="M266.214 157.713C266.214 162.245 267.857 163.882 272.386 163.882L284.01 163.952V172.99H267.456C257.838 172.99 252.335 167.519 252.335 157.935V125.272H252.323V114.184H238.533V106.199C239.45 106.199 239.151 106.186 240.412 106.155C242.648 106.123 244.336 106.06 245.501 105.971C248.386 105.818 250.31 105.26 251.272 104.301C252.221 103.356 252.851 101.394 253.195 98.4302C253.444 96.7926 253.628 94.7489 253.756 92.3115C253.877 89.8869 253.94 86.6499 253.94 86.25H266.227V104.441H284.022V114.19H266.227V157.719L266.214 157.713Z" fill="#55A05E"/>
<path d="M27.6807 157.713C27.6807 162.245 29.324 163.882 33.8525 163.882L45.4764 163.952V172.99H28.9227C19.3052 172.99 13.8022 167.519 13.8022 157.935V125.272H13.7894V114.184H0V106.199C0.917171 106.199 0.617824 106.186 1.87893 106.155C4.11454 106.123 5.80238 106.06 6.96795 105.971C9.85322 105.818 11.7767 105.26 12.7385 104.301C13.6875 103.356 14.3181 101.394 14.662 98.4302C14.9104 96.7926 15.0951 94.7489 15.2225 92.3115C15.3435 89.8869 15.4072 86.6499 15.4072 86.25H27.6935V104.441H45.4891V114.19H27.6935V157.719L27.6807 157.713Z" fill="#55A05E"/>
</svg>
